<?xml version="1.0" standalone="no"?>
<!DOCTYPE svg PUBLIC "-//W3C//DTD SVG 20010904//EN"
 "http://www.w3.org/TR/2001/REC-SVG-20010904/DTD/svg10.dtd">
<svg version="1.0" xmlns="http://www.w3.org/2000/svg"
 width="576.000000pt" height="340.000000pt" viewBox="0 0 576.000000 340.000000"
 preserveAspectRatio="xMidYMid meet">

<g transform="translate(0.000000,340.000000) scale(0.100000,-0.100000)"
fill="#000000" stroke="none">
<path d="M4384 3295 c-10 -8 -14 -15 -8 -15 6 0 17 7 24 15 16 19 9 19 -16 0z"/>
<path d="M4291 3241 c-8 -5 -9 -11 -3 -15 5 -3 15 1 22 9 14 16 3 20 -19 6z"/>
<path d="M4241 3184 c0 -11 3 -14 6 -6 3 7 2 16 -1 19 -3 4 -6 -2 -5 -13z"/>
<path d="M4265 3160 c-3 -5 -1 -10 4 -10 6 0 11 5 11 10 0 6 -2 10 -4 10 -3 0
-8 -4 -11 -10z"/>
<path d="M3996 2941 c-4 -5 3 -7 14 -4 23 6 26 13 6 13 -8 0 -17 -4 -20 -9z"/>
<path d="M4888 2925 c-26 -22 -28 -30 -28 -98 0 -61 -5 -86 -31 -142 -16 -37
-28 -69 -26 -71 2 -3 31 -9 65 -14 33 -6 76 -17 96 -25 19 -8 51 -15 70 -15
29 0 41 7 70 44 20 23 36 47 36 52 0 5 11 23 25 39 21 25 26 28 35 15 5 -8 10
-31 10 -50 0 -65 32 -132 91 -192 66 -66 106 -81 225 -82 70 -1 85 2 118 24
37 25 76 91 76 130 0 27 -20 68 -36 74 -10 4 -14 -4 -14 -31 0 -56 -21 -112
-54 -145 -28 -29 -33 -30 -93 -25 -73 6 -114 31 -168 105 -47 65 -59 115 -53
223 l6 90 -32 -7 c-82 -17 -198 -112 -242 -195 -16 -32 -29 -34 -89 -18 -63
17 -65 22 -43 92 21 66 37 247 22 247 -5 0 -21 -12 -36 -25z"/>
<path d="M4000 2905 c-7 -8 -8 -15 -2 -15 5 0 15 7 22 15 7 8 8 15 2 15 -5 0
-15 -7 -22 -15z"/>
<path d="M4048 2893 c7 -3 16 -2 19 1 4 3 -2 6 -13 5 -11 0 -14 -3 -6 -6z"/>
<path d="M4198 2833 c7 -3 16 -2 19 1 4 3 -2 6 -13 5 -11 0 -14 -3 -6 -6z"/>
<path d="M3565 2707 c0 -116 -1 -124 -28 -170 -30 -51 -96 -101 -149 -112 -37
-9 -28 -18 40 -40 l52 -17 71 69 c118 113 157 229 110 327 -13 26 -31 48 -44
51 -12 4 -29 8 -37 11 -13 3 -15 -14 -15 -119z"/>
<path d="M3665 2790 c3 -4 14 -10 25 -13 11 -3 18 -2 15 3 -3 4 -14 10 -25 13
-11 3 -18 2 -15 -3z"/>
<path d="M3966 2755 c4 -8 8 -15 10 -15 2 0 4 7 4 15 0 8 -4 15 -10 15 -5 0
-7 -7 -4 -15z"/>
<path d="M4005 2710 c3 -5 8 -10 11 -10 2 0 4 5 4 10 0 6 -5 10 -11 10 -5 0
-7 -4 -4 -10z"/>
<path d="M4041 2670 c0 -8 4 -24 9 -35 5 -13 9 -14 9 -5 0 8 -4 24 -9 35 -5
13 -9 14 -9 5z"/>
<path d="M3800 2650 c0 -5 5 -10 11 -10 5 0 7 5 4 10 -3 6 -8 10 -11 10 -2 0
-4 -4 -4 -10z"/>
<path d="M3830 2621 c0 -6 4 -13 10 -16 6 -3 7 1 4 9 -7 18 -14 21 -14 7z"/>
<path d="M3796 2607 c3 -10 9 -15 12 -12 3 3 0 11 -7 18 -10 9 -11 8 -5 -6z"/>
<path d="M3830 2580 c0 -6 7 -10 15 -10 8 0 15 2 15 4 0 2 -7 6 -15 10 -8 3
-15 1 -15 -4z"/>
<path d="M1284 2332 c-376 -251 -505 -334 -509 -330 -5 5 -25 177 -25 216 0
12 -6 22 -12 21 -7 0 -74 -35 -148 -77 l-135 -78 -6 -146 c-4 -80 -9 -157 -12
-170 -4 -15 -33 -39 -84 -71 -177 -110 -248 -157 -251 -167 -3 -8 92 -11 349
-9 l353 2 151 102 c82 56 213 145 290 198 77 53 247 168 377 256 l237 160 48
-27 c26 -14 136 -89 243 -164 107 -76 225 -160 263 -186 37 -26 164 -116 282
-200 l214 -152 1133 2 c623 1 1223 5 1333 8 l200 5 0 45 0 45 -1030 -4 -1030
-3 -146 98 c-514 348 -671 453 -894 605 l-249 169 -361 0 -360 -1 -221 -147z"/>
<path d="M3567 2360 c-56 -14 -90 -35 -124 -74 -65 -73 -68 -163 -8 -233 40
-47 78 -65 222 -107 87 -25 110 -36 122 -57 20 -35 7 -75 -29 -94 -73 -38
-158 0 -176 79 -6 29 -6 29 -67 22 -33 -3 -77 -6 -98 -6 -36 0 -39 -2 -39 -27
1 -70 76 -169 147 -192 51 -16 187 -25 256 -17 34 5 75 19 108 39 147 88 156
280 17 361 -40 22 -84 38 -240 81 -47 13 -59 20 -64 41 -16 64 91 91 144 36
15 -15 32 -35 37 -44 9 -14 23 -15 100 -10 l90 7 -2 33 c-2 51 -46 108 -105
138 -44 22 -68 27 -152 30 -56 2 -118 -1 -139 -6z"/>
<path d="M4115 2348 c-3 -7 -4 -164 -3 -348 l3 -335 200 0 c228 0 272 8 335
62 41 35 81 102 94 157 13 53 8 214 -8 269 -22 77 -74 140 -143 174 -57 28
-61 28 -265 31 -167 3 -209 1 -213 -10z m372 -174 c37 -28 51 -75 51 -169 0
-143 -30 -185 -139 -188 l-64 -2 -3 194 -2 193 65 -4 c44 -3 73 -10 92 -24z"/>
<path d="M4880 2011 l0 -351 105 0 105 0 0 140 0 140 26 0 c45 0 62 -18 134
-150 l71 -130 115 0 c71 0 114 4 114 10 0 17 -91 192 -119 229 -14 19 -39 42
-55 52 l-29 18 39 16 c98 41 141 133 110 238 -17 59 -43 88 -101 114 -34 14
-78 18 -277 21 l-238 4 0 -351z m389 185 c26 -24 27 -70 2 -95 -21 -21 -86
-35 -141 -29 l-35 3 -3 74 -3 73 80 -3 c60 -3 84 -9 100 -23z"/>
<path d="M1704 1817 c-3 -8 -4 -36 -2 -63 l3 -49 63 -3 63 -3 -3 63 -3 63 -58
3 c-42 2 -59 -1 -63 -11z"/>
<path d="M1877 1823 c-4 -3 -7 -33 -7 -65 l0 -58 64 0 c35 0 66 4 68 10 2 5 1
35 0 65 l-4 55 -57 0 c-32 0 -61 -3 -64 -7z"/>
<path d="M1700 1595 l0 -65 65 0 65 0 0 65 0 65 -65 0 -65 0 0 -65z"/>
<path d="M571 1141 c-84 -49 -158 -94 -165 -101 -8 -9 -4 -17 17 -36 37 -32
89 -32 147 1 113 63 102 62 162 25 155 -97 409 -250 413 -250 3 0 5 99 5 220
l0 220 -184 0 c-101 0 -196 2 -212 6 -24 4 -57 -12 -183 -85z"/>
<path d="M44 1207 c-2 -7 -3 -116 -2 -242 l3 -230 122 -81 c181 -121 406 -262
434 -273 33 -12 59 3 59 33 0 18 -19 38 -76 80 -49 38 -74 63 -72 74 6 32 36
23 131 -37 104 -67 141 -76 159 -37 6 14 8 31 5 39 -3 8 -42 43 -86 76 -53 40
-81 69 -81 81 0 34 34 23 137 -45 54 -36 108 -68 120 -71 37 -10 58 0 61 27 3
24 -9 35 -93 94 -99 69 -116 88 -96 108 9 9 19 7 44 -7 123 -73 207 -117 235
-122 36 -7 62 8 62 35 0 20 -9 27 -245 190 l-180 124 -45 -18 c-25 -10 -85
-32 -133 -48 -82 -29 -91 -30 -115 -16 -15 8 -37 32 -49 54 -21 38 -21 41 -5
57 9 9 71 47 137 85 l120 67 -40 8 c-22 4 -145 7 -273 7 -179 1 -234 -2 -238
-12z"/>
<path d="M1278 1195 c-62 -34 -88 -201 -47 -310 17 -45 31 -63 74 -95 40 -30
54 -47 59 -73 7 -36 -5 -80 -24 -92 -19 -12 -47 24 -53 66 -3 22 -7 43 -10 45
-3 3 -21 2 -41 -1 -32 -7 -36 -10 -36 -39 0 -43 26 -141 45 -170 20 -31 67
-50 101 -42 67 17 110 128 102 264 -6 105 -33 160 -98 202 -26 17 -51 38 -54
46 -18 48 9 99 39 74 8 -7 17 -27 21 -46 6 -35 17 -40 62 -28 26 7 28 27 11
106 -20 92 -82 130 -151 93z"/>
<path d="M5341 1185 c-41 -35 -70 -118 -81 -236 -12 -122 2 -288 31 -364 46
-123 150 -136 219 -28 l31 48 -3 145 -3 145 -65 0 -65 0 0 -70 c0 -69 0 -70
28 -73 24 -3 27 -8 27 -38 0 -41 -31 -77 -63 -72 -39 5 -58 83 -54 223 3 128
20 185 55 185 23 0 42 -19 42 -41 0 -27 16 -31 55 -15 22 9 35 22 35 33 0 28
-26 116 -40 140 -30 48 -102 57 -149 18z"/>
<path d="M1566 1173 c-3 -16 -10 -59 -16 -98 -5 -38 -25 -178 -45 -310 -19
-132 -35 -246 -35 -253 0 -9 13 -12 43 -10 39 3 42 5 45 33 6 74 9 76 60 73
l47 -3 3 -45 c4 -57 13 -67 57 -62 29 3 35 8 35 27 0 23 -86 613 -95 653 -5
19 -12 22 -49 22 -40 0 -45 -3 -50 -27z m66 -324 c3 -78 2 -84 -17 -84 -18 0
-20 6 -19 55 1 30 4 78 9 105 10 69 22 35 27 -76z"/>
<path d="M1784 1186 c-3 -9 -4 -134 -2 -279 5 -277 14 -333 58 -389 42 -55
134 -41 164 25 35 76 41 129 41 392 l0 260 -40 0 -40 0 -5 -256 c-5 -260 -10
-289 -45 -289 -35 0 -40 29 -45 289 l-5 256 -38 3 c-26 2 -39 -1 -43 -12z"/>
<path d="M2105 1187 c-3 -6 -4 -163 -3 -347 l3 -335 81 -3 c80 -3 82 -2 107
27 48 57 61 128 62 316 0 153 -2 177 -24 243 -32 97 -51 112 -148 112 -50 0
-75 -4 -78 -13z m125 -157 c10 -5 23 -24 29 -41 14 -40 14 -249 1 -286 -13
-34 -37 -54 -56 -46 -11 4 -14 40 -14 187 0 101 3 186 7 189 8 9 11 9 33 -3z"/>
<path d="M2466 1191 c-4 -5 -22 -119 -42 -253 -19 -133 -41 -283 -49 -333 -8
-49 -15 -93 -15 -97 0 -5 20 -8 45 -8 44 0 45 1 45 33 0 68 8 77 60 77 l48 0
7 -55 6 -55 45 0 c24 0 44 3 44 8 0 4 -7 48 -15 97 -16 103 -49 322 -70 473
-8 57 -17 108 -20 113 -8 12 -82 12 -89 0z m62 -326 c6 -49 8 -93 6 -97 -7
-11 -42 -10 -48 0 -8 13 17 203 25 195 4 -5 11 -48 17 -98z"/>
<path d="M2697 1193 c-8 -7 -10 -687 -2 -695 3 -3 22 -2 43 1 l37 6 1 133 c1
73 4 135 6 138 15 14 38 -60 73 -244 l7 -32 93 0 94 0 6 55 7 55 48 0 48 0 7
-52 c4 -29 11 -55 16 -59 5 -3 25 -3 45 -1 l36 4 -7 42 c-8 54 -62 414 -80
540 -8 54 -18 103 -23 108 -5 5 -27 8 -48 6 l-39 -3 -26 -170 c-14 -93 -37
-243 -50 -332 -13 -89 -27 -159 -30 -155 -4 4 -16 51 -27 105 -12 54 -28 111
-35 127 -14 26 -13 33 12 82 23 47 26 65 26 153 -1 112 -20 170 -62 186 -28
10 -166 12 -176 2z m137 -149 c10 -9 16 -33 16 -59 0 -36 -5 -48 -25 -61 -13
-8 -29 -13 -35 -9 -11 7 -14 127 -3 138 11 12 31 8 47 -9z m294 -176 c6 -50 9
-95 6 -100 -6 -10 -41 -11 -47 0 -7 11 15 192 23 192 4 0 12 -41 18 -92z"/>
<path d="M3420 850 l0 -350 160 0 160 0 0 33 c0 69 8 78 59 75 l46 -3 8 -52 9
-53 45 0 c42 0 45 2 40 23 -3 12 -24 150 -47 306 -60 409 -49 365 -94 369 -21
2 -42 0 -47 -5 -4 -4 -20 -84 -34 -178 -40 -266 -75 -492 -77 -502 -1 -4 -4
28 -7 72 l-6 80 -65 5 c-48 4 -65 9 -66 20 -1 8 -2 126 -3 263 l-1 247 -40 0
-40 0 0 -350z m396 16 c5 -45 8 -85 9 -91 0 -5 -11 -10 -25 -10 -28 0 -29 5
-15 139 9 86 20 71 31 -38z"/>
<path d="M3975 1178 c-3 -13 -5 -168 -3 -346 3 -346 3 -344 54 -334 l24 4 0
206 c0 113 2 203 4 201 2 -2 12 -80 21 -174 22 -235 22 -232 48 -239 12 -3 27
0 33 7 6 7 19 91 28 187 24 264 34 270 35 23 l1 -213 35 0 35 0 -2 348 -3 347
-55 0 -55 0 -19 -184 c-12 -111 -23 -177 -27 -165 -4 10 -15 91 -24 178 -9 88
-18 164 -21 168 -3 4 -27 8 -54 8 -43 0 -50 -3 -55 -22z"/>
<path d="M4347 1193 c-4 -3 -7 -161 -7 -350 l0 -343 45 0 44 0 3 128 3 127 35
3 c73 7 102 73 103 230 0 170 -29 212 -148 212 -39 0 -75 -3 -78 -7z m133
-164 c13 -23 13 -85 0 -110 -6 -10 -20 -19 -30 -19 -18 0 -20 7 -20 73 0 41 3
76 6 80 9 9 34 -4 44 -24z"/>
<path d="M4624 1186 c-3 -9 -4 -134 -2 -278 5 -278 13 -334 58 -390 23 -30 76
-43 114 -28 38 14 74 98 87 201 5 46 8 178 7 294 l-3 210 -40 0 -40 0 -5 -256
c-5 -260 -10 -289 -45 -289 -35 0 -40 29 -45 289 l-5 256 -38 3 c-26 2 -39 -1
-43 -12z"/>
<path d="M4947 1194 c-4 -4 -7 -162 -7 -351 l0 -343 40 0 c25 0 40 5 41 13 0
6 0 78 0 159 0 81 3 150 8 152 5 3 28 -69 52 -159 l44 -165 43 0 42 0 -2 348
-3 347 -37 3 -38 3 0 -177 c0 -98 -3 -174 -7 -170 -5 4 -28 83 -53 174 l-46
167 -35 3 c-19 2 -38 0 -42 -4z"/>
<path d="M44 266 c-3 -7 -4 -33 -2 -57 l3 -44 2740 0 2740 0 0 55 0 55 -2738
3 c-2327 2 -2738 0 -2743 -12z"/>
</g>
</svg>
